<?xml version="1.0" encoding="utf-8"?>
<!-- Generator: Adobe Illustrator 15.0.0, SVG Export Plug-In . SVG Version: 6.00 Build 0)  -->
<!DOCTYPE svg PUBLIC "-//W3C//DTD SVG 1.1//EN" "http://www.w3.org/Graphics/SVG/1.1/DTD/svg11.dtd">
<svg version="1.1" id="Layer_1" xmlns="http://www.w3.org/2000/svg" xmlns:xlink="http://www.w3.org/1999/xlink" x="0px" y="0px"
	 width="413.641px" height="413.641px" viewBox="0 0 413.641 413.641" enable-background="new 0 0 413.641 413.641"
	 xml:space="preserve">
<path d="M206.82,0C92.597,0,0,92.597,0,206.82s92.597,206.821,206.82,206.821s206.821-92.598,206.821-206.821S321.044,0,206.82,0z
	 M68.451,238.724v-2.539c1.999-0.943,3.272-1.691,3.82-2.245c0.322-0.292,0.548-0.666,0.677-1.122
	c0.29-0.91,0.484-2.862,0.581-5.855c0.162-4.456,0.244-7.107,0.244-7.953v-26.249c0-4.424-0.049-8.75-0.146-12.979
	c-0.098-3.09-0.334-4.92-0.708-5.489c-0.375-0.569-0.977-0.992-1.807-1.268s-3.183-0.447-7.056-0.513v-3.125
	c7.942,0.228,12.857,0.342,14.746,0.342c2.083,0,6.754-0.114,14.014-0.342v3.125c-3.874,0.065-6.226,0.236-7.056,0.513
	s-1.408,0.658-1.733,1.146c-0.391,0.651-0.635,2.229-0.732,4.732c-0.041,0.651-0.122,5.27-0.244,13.856v32.787
	c0,3.415,0.081,6.196,0.244,8.343c3.711,0.228,7.389,0.342,11.035,0.342c9.18,0,15.608-0.586,19.287-1.758
	c0.423-0.977,0.797-2.1,1.123-3.369l1.953-8.105h3.271c-0.717,4.851-1.416,10.547-2.1,17.09c-1.335,0.261-2.393,0.423-3.174,0.488
	c-1.693,0.098-4.297,0.146-7.812,0.146l-28.906-0.342C74.848,238.382,71.674,238.497,68.451,238.724z M298.591,330.313l-0.459-0.164
	l-3.618,2.639l0.015,0.488l-4.124,12.473l-0.046-0.062l-0.505-11.961l-2.604,7.697l-0.045-0.062l-0.505-11.961l-2.604,7.699
	l-0.046-0.062l-0.506-11.961l-2.604,7.697l-0.045-0.062l-0.507-11.961l-2.604,7.699l-0.045-0.064l-0.506-11.959l-2.603,7.697
	l-0.046-0.062l-0.504-11.961l-2.605,7.699l-1.062-20.05l-64.242-88.076l-64.242,88.076l-1.062,20.05l-2.605-7.699l-0.504,11.961
	l-0.046,0.062l-2.603-7.697l-0.506,11.959l-0.045,0.064l-2.604-7.699l-0.507,11.961l-0.045,0.062l-2.604-7.697l-0.506,11.961
	l-0.046,0.062l-2.604-7.699l-0.505,11.961l-0.045,0.062l-2.604-7.697l-0.505,11.961l-0.046,0.062l-4.124-12.473l0.015-0.488
	l-3.618-2.639l-0.459,0.164l-13.139-0.115l0.045-0.064l11.236-4.135l-8.127-0.127l0.047-0.062l11.234-4.137l-8.126-0.127
	l0.046-0.061l11.234-4.137l-8.126-0.127l0.046-0.062l11.235-4.137l-8.126-0.127l0.046-0.062l11.235-4.135l-8.126-0.127l0.045-0.062
	l11.236-4.136l-8.128-0.125l18.771-7.14l65.088-89.235L119.247,92.5l-6.002,11.169l-8.633-35.033l30.724,18.923l-12.463,2.312
	l83.298,114.201l83.298-114.201l-12.463-2.312l30.724-18.923l-8.633,35.033L293.095,92.5l-84.152,115.372l65.088,89.235l18.771,7.14
	l-8.128,0.125l11.236,4.136l0.045,0.062l-8.126,0.127l11.235,4.135l0.046,0.062l-8.126,0.127l11.235,4.137l0.046,0.062l-8.126,0.127
	l11.234,4.137l0.046,0.061l-8.126,0.127l11.234,4.137l0.047,0.062l-8.127,0.127l11.236,4.135l0.045,0.064L298.591,330.313z
	 M346.82,238.08c-2.8,0.43-6.201,0.645-10.205,0.645l-29.15-0.342c-0.424,0-4.688,0.114-12.793,0.342v-3.125
	c3.418-0.032,5.664-0.292,6.738-0.78c0.455-0.195,0.781-0.504,0.977-0.927c0.325-0.65,0.553-2.356,0.684-5.119
	c0.195-4.29,0.293-7.996,0.293-11.116v-24.912c0-4.42-0.049-8.743-0.146-12.968c-0.098-3.087-0.334-4.915-0.708-5.484
	c-0.375-0.569-0.977-0.992-1.807-1.268c-0.83-0.276-3.183-0.446-7.056-0.512v-3.125l13.916,0.293l14.746-0.244
	c7.063-0.098,12.19-0.146,15.381-0.146c3.223,0,6.266,0.179,9.131,0.537c-0.521,1.855-0.879,3.467-1.074,4.834
	c-0.065,0.293-0.358,3.679-0.879,10.156h-3.076c0.032-3.32-0.18-6.348-0.635-9.082c-1.791-0.749-3.76-1.253-5.908-1.514
	c-3.646-0.456-7.292-0.684-10.938-0.684c-0.781,0-2.523,0.065-5.225,0.195c-2.702,0.13-4.639,0.244-5.811,0.342
	c-0.131,3.6-0.229,6.973-0.293,10.119l-0.195,16.444c3.809,0.228,7.308,0.342,10.498,0.342c3.873,0,7.178-0.179,9.912-0.537
	c1.041-0.13,1.709-0.391,2.002-0.781s0.553-1.725,0.781-4.004l0.293-3.418h2.93v0.928l-0.244,10.156l0.244,11.377h-3.418
	l-0.146-3.32c-0.065-2.409-0.285-3.906-0.659-4.492c-0.375-0.586-1.083-0.993-2.124-1.221c-1.855-0.391-5.453-0.586-10.791-0.586
	c-2.182,0-5.273,0.082-9.277,0.244c-0.163,3.255-0.244,8.089-0.244,14.502c0,6.022,0.081,10.596,0.244,13.721
	c4.68,0.358,9.93,0.537,15.748,0.537c4.127,0,7.068-0.13,8.824-0.391c1.755-0.26,3.38-0.7,4.875-1.318
	c0.39-1.009,0.779-2.376,1.17-4.102c0.715-2.897,1.187-5.078,1.414-6.543h3.271C347.243,228.304,346.82,233.753,346.82,238.08z"/>
</svg>
